<?xml version="1.0" standalone="no"?>
<!DOCTYPE svg PUBLIC "-//W3C//DTD SVG 20010904//EN"
 "http://www.w3.org/TR/2001/REC-SVG-20010904/DTD/svg10.dtd">
<svg version="1.0" xmlns="http://www.w3.org/2000/svg"
 width="110.000000pt" height="101.000000pt" viewBox="0 0 110.000000 101.000000"
 preserveAspectRatio="xMidYMid meet">

<g transform="translate(0.000000,101.000000) scale(0.100000,-0.100000)"
fill="#000000" stroke="none">
<path d="M128 733 l-115 -238 116 -233 116 -232 300 0 300 0 117 234 117 234
-116 236 -117 236 -301 0 -301 0 -116 -237z m812 -3 c60 -121 110 -225 110
-232 0 -7 -48 -111 -107 -230 l-107 -218 -291 0 -290 0 -108 215 c-59 118
-107 222 -107 229 0 12 189 403 214 444 5 9 87 12 292 12 l284 0 110 -220z"/>
<path d="M153 713 l-106 -217 109 -218 109 -218 280 0 280 0 109 218 109 218
-106 217 -106 217 -286 0 -286 0 -106 -217z m69 -175 c-7 -7 -12 -22 -12 -35
0 -20 5 -23 35 -23 40 0 55 21 36 51 -10 17 -8 19 21 18 18 0 27 -3 21 -6 -9
-3 -13 -27 -13 -68 0 -41 4 -65 13 -68 6 -3 -4 -6 -22 -6 -27 -1 -32 2 -23 11
7 7 12 22 12 35 0 20 -5 23 -40 23 -38 0 -40 -2 -40 -29 0 -16 6 -32 13 -34 6
-3 -4 -5 -23 -5 -19 0 -29 2 -22 5 16 6 16 115 0 131 -9 9 -4 12 22 12 26 0
31 -3 22 -12z m228 -53 c12 -36 29 -69 38 -75 14 -7 10 -9 -16 -10 -18 0 -31
4 -28 9 12 19 -7 41 -34 41 -19 0 -29 -6 -33 -20 -3 -10 0 -21 7 -24 6 -2 -2
-5 -17 -5 -25 -1 -27 1 -14 14 9 8 26 42 39 75 12 33 26 60 30 60 3 0 16 -29
28 -65z m134 14 c36 -40 47 -47 52 -35 8 20 -4 69 -19 78 -7 4 4 7 23 7 19 0
29 -3 23 -6 -9 -3 -13 -28 -13 -74 0 -40 -4 -69 -10 -69 -6 0 -29 25 -53 55
l-42 55 -3 -47 c-2 -30 1 -49 10 -54 9 -6 3 -9 -17 -9 -22 0 -26 3 -17 12 20
20 15 115 -5 127 -16 9 -16 10 4 11 13 0 38 -19 67 -51z m205 -19 c13 -38 29
-71 35 -74 6 -2 -1 -5 -16 -5 -20 -1 -27 4 -30 22 -2 14 -11 23 -27 25 -25 4
-44 -15 -36 -35 2 -7 -3 -13 -13 -13 -15 0 -13 10 18 75 19 41 37 75 40 75 3
0 16 -31 29 -70z m114 63 c-9 -3 -13 -27 -13 -68 0 -41 4 -65 13 -68 6 -3 -1
-6 -18 -6 l-30 -1 0 75 0 75 30 -1 c17 0 24 -3 18 -6z m-105 -441 c3 -9 -46
-12 -221 -12 -224 0 -287 5 -287 21 0 15 503 6 508 -9z"/>
<path d="M402 485 c-10 -22 -9 -25 8 -25 21 0 26 16 12 38 -6 9 -12 6 -20 -13z"/>
<path d="M736 484 c-9 -23 -8 -24 13 -24 14 0 18 5 14 20 -6 24 -19 26 -27 4z"/>
</g>
</svg>
